<?xml version="1.0" standalone="no"?>
<!DOCTYPE svg PUBLIC "-//W3C//DTD SVG 20010904//EN"
 "http://www.w3.org/TR/2001/REC-SVG-20010904/DTD/svg10.dtd">
<svg version="1.0" xmlns="http://www.w3.org/2000/svg"
 width="240.000000pt" height="240.000000pt" viewBox="0 0 240.000000 240.000000"
 preserveAspectRatio="xMidYMid meet">

<g transform="translate(0.000000,240.000000) scale(0.100000,-0.100000)"
fill="#000000" stroke="none">
<path d="M482 1918 c-9 -9 -12 -103 -12 -363 l0 -351 211 -362 211 -362 38 0
c25 0 40 5 44 16 3 9 6 162 6 340 0 253 3 324 13 324 6 0 101 -153 210 -340
l199 -340 38 0 c25 0 40 5 44 16 3 9 6 159 6 334 l0 319 43 34 c23 19 120 89
215 156 l172 122 -2 232 -3 232 -25 3 c-18 1 -72 -31 -199 -122 -96 -69 -180
-135 -187 -148 -10 -16 -13 -78 -14 -215 0 -106 -4 -194 -9 -198 -13 -8 -28
15 -210 330 -214 367 -205 355 -239 355 -15 0 -33 -5 -40 -12 -9 -9 -12 -98
-12 -339 0 -190 -4 -330 -9 -334 -13 -8 -28 15 -210 330 -214 367 -205 355
-239 355 -15 0 -33 -5 -40 -12z"/>
</g>
</svg>
